<svg width="24" height="24" viewBox="0 0 24 24" fill="none" xmlns="http://www.w3.org/2000/svg">
<g id="X">
<path id="Vector" d="M19.1475 18.3526C19.2028 18.4041 19.2471 18.4662 19.2778 18.5352C19.3086 18.6042 19.3251 18.6787 19.3265 18.7542C19.3278 18.8298 19.3139 18.9048 19.2856 18.9748C19.2573 19.0449 19.2152 19.1085 19.1618 19.1619C19.1084 19.2153 19.0447 19.2574 18.9747 19.2857C18.9047 19.314 18.8296 19.3279 18.7541 19.3266C18.6786 19.3252 18.6041 19.3087 18.5351 19.278C18.4661 19.2472 18.404 19.2029 18.3525 19.1476L12 12.7961L5.64751 19.1476C5.54088 19.247 5.39984 19.3011 5.25411 19.2985C5.10839 19.2959 4.96935 19.2369 4.86629 19.1338C4.76323 19.0308 4.7042 18.8917 4.70163 18.746C4.69905 18.6003 4.75315 18.4593 4.85251 18.3526L11.2041 12.0001L4.85251 5.64763C4.75315 5.541 4.69905 5.39996 4.70163 5.25424C4.7042 5.10851 4.76323 4.96947 4.86629 4.86641C4.96935 4.76335 5.10839 4.70432 5.25411 4.70175C5.39984 4.69918 5.54088 4.75327 5.64751 4.85263L12 11.2042L18.3525 4.85263C18.4591 4.75327 18.6002 4.69918 18.7459 4.70175C18.8916 4.70432 19.0307 4.76335 19.1337 4.86641C19.2368 4.96947 19.2958 5.10851 19.2984 5.25424C19.301 5.39996 19.2469 5.541 19.1475 5.64763L12.7959 12.0001L19.1475 18.3526Z" fill="black"/>
</g>
</svg>
